<?xml version="1.0" standalone="no"?><!DOCTYPE svg PUBLIC "-//W3C//DTD SVG 1.1//EN" "http://www.w3.org/Graphics/SVG/1.1/DTD/svg11.dtd"><svg t="1532498193602" class="icon" style="" viewBox="0 0 1024 1024" version="1.1" xmlns="http://www.w3.org/2000/svg" p-id="1924" xmlns:xlink="http://www.w3.org/1999/xlink" width="200" height="200"><defs><style type="text/css"></style></defs><path d="M714.391733 801.782635c0-47.922081 38.799857-86.721938 86.721938-86.721939s86.721938 38.799857 86.721939 86.721939-38.799857 86.721938-86.721939 86.721938c-47.800451 0.12163-86.721938-38.799857-86.721938-86.721938zM569.895712 223.555292c0-47.922081 38.799857-86.721938 86.721939-86.721939s86.721938 38.799857 86.721938 86.721939-38.799857 86.721938-86.721938 86.721938-86.721938-38.921487-86.721939-86.721938zM136.04276 671.760542c0-79.910678 64.706972-144.617651 144.617651-144.617651 79.789049 0 144.617651 64.706972 144.617651 144.617651s-64.706972 144.617651-144.617651 144.61765c-79.789049-0.12163-144.617651-64.828602-144.617651-144.61765z" p-id="1925" fill="#ffffff"></path><path d="M78.268678 671.760542c0 111.777646 90.614087 202.391733 202.391733 202.391733 79.1809 0 147.780021-45.489488 180.984915-111.777646L656.617651 796.674189l-0.12163 5.108446c0 79.910678 64.706972 144.617651 144.61765 144.61765 79.789049 0 144.617651-64.706972 144.617651-144.61765S881.02435 657.164984 801.113671 657.164984c-57.895712 0-107.885497 33.934672-130.8735 83.073049l-190.228768-33.448153c1.946074-11.433187 3.040741-23.231263 3.040741-35.150968 0-52.787267-20.312151-100.952607-53.395415-136.954983L605.533199 358.807459c15.811854 5.959853 33.083264 9.243853 51.084452 9.243854 79.789049 0 144.617651-64.706972 144.61765-144.617651S736.528329 78.816011 656.617651 78.816011 512 143.522984 512 223.433662c0 40.502673 16.663262 77.234826 43.543414 103.50683L384.53213 497.951776c-30.407412-18.244447-65.923269-28.704597-103.871719-28.704597C168.882765 469.247179 78.268678 559.861266 78.268678 671.760542z" p-id="1926" fill="#ffffff"></path></svg>