<?xml version="1.0" standalone="no"?><!DOCTYPE svg PUBLIC "-//W3C//DTD SVG 1.1//EN" "http://www.w3.org/Graphics/SVG/1.1/DTD/svg11.dtd"><svg t="1532498305142" class="icon" style="" viewBox="0 0 1024 1024" version="1.1" xmlns="http://www.w3.org/2000/svg" p-id="5423" xmlns:xlink="http://www.w3.org/1999/xlink" width="200" height="200"><defs><style type="text/css"></style></defs><path d="M960.207092 862.34525 742.483348 644.618437c98.31926-144.359852 83.48439-342.713432-44.557822-470.756667-144.853086-144.855132-379.704928-144.855132-524.555967 0-144.856156 144.856156-144.856156 379.715161 0 524.56006C301.410748 826.466088 499.762281 841.299935 644.12725 742.974535l217.72272 217.720673L960.207092 862.34525zM222.539422 649.240711c-117.688399-117.684306-117.688399-308.503283 0-426.198845 117.698632-117.694539 308.513516-117.694539 426.209078 0 117.691469 117.694539 117.691469 308.513516 0 426.198845C531.052938 766.93525 340.239078 766.93525 222.539422 649.240711z" p-id="5424" fill="#ffffff"></path></svg>