<?xml version="1.0" encoding="utf-8"?>
<!-- Generator: Adobe Illustrator 19.0.0, SVG Export Plug-In . SVG Version: 6.00 Build 0)  -->
<svg version="1.1" id="图层_1" xmlns="http://www.w3.org/2000/svg" xmlns:xlink="http://www.w3.org/1999/xlink" x="0px" y="0px"
	 viewBox="-27 47.8 200 200" style="enable-background:new -27 47.8 200 200;" xml:space="preserve">
<g>
	<rect x="24.8" y="139.7" width="96.5" height="16.4"/>
	<rect x="24.8" y="171.2" width="96.5" height="16.4"/>
	<path d="M143.3,235.7H2.7c-9.7,0-17.6-8.2-17.6-18.2V91.4c0-10.1,7.9-18.2,17.6-18.2h16.2v13.3c0,7.7,6.1,14,13.5,14
		S46,94.2,46,86.5V73.2h54.8v13.3c0,7.7,6.1,14,13.5,14c7.5,0,13.5-6.3,13.5-14V73.2h15.5c9.7,0,17.6,8.2,17.6,18.2v126.1
		C160.9,227.5,153,235.7,143.3,235.7L143.3,235.7z M148,207.7v-86.1H-2v86.1c0,10.1-0.2,14.7,9.5,14.7h131.8
		C149,222.4,148,217.7,148,207.7L148,207.7z M114.6,94.2c-3.9,0-7.1-3.3-7.1-7.3V67.3c0-4.1,3.2-7.4,7.1-7.4s7.1,3.3,7.1,7.4v19.6
		C121.7,90.9,118.5,94.2,114.6,94.2z M32.4,94.2c-3.7,0-6.8-3.1-6.8-7V66.9c0-3.9,3-7,6.8-7s6.8,3.1,6.8,7v20.3
		C39.2,91.1,36.2,94.2,32.4,94.2L32.4,94.2z"/>
</g>
</svg>
