<?xml version="1.0" encoding="utf-8"?>
<!-- Generator: Adobe Illustrator 19.0.0, SVG Export Plug-In . SVG Version: 6.00 Build 0)  -->
<svg version="1.1" id="图层_1" xmlns="http://www.w3.org/2000/svg" xmlns:xlink="http://www.w3.org/1999/xlink" x="0px" y="0px"
	 viewBox="-27 47.8 200 200" style="enable-background:new -27 47.8 200 200;" xml:space="preserve">
<style type="text/css">
	.st0{display:none;}
</style>
<path class="st0" d="M73,60.3c-36.6,0-66.2,29.4-66.2,65.6C6.7,162.2,73,235.3,73,235.3s66.3-73.1,66.3-109.4
	C139.2,89.7,109.6,60.3,73,60.3z M73,169.7c-24.4,0-44.2-19.6-44.2-43.8c0-24.2,19.8-43.7,44.2-43.7c24.4,0,44.2,19.6,44.2,43.7
	C117.2,150.1,97.4,169.7,73,169.7L73,169.7z M72.8,104.1c-12.1,0-21.9,9.8-21.9,21.9c0,12.1,9.8,21.9,21.9,21.9
	c12.1,0,21.9-9.8,21.9-21.9S84.9,104.1,72.8,104.1z"/>
<g>
	<path d="M73,62.8c46.9,0,85,38.1,85,85s-38.1,85-85,85s-85-38.1-85-85S26.1,62.8,73,62.8 M73,47.8c-55.2,0-100,44.8-100,100
		s44.8,100,100,100s100-44.8,100-100S128.2,47.8,73,47.8L73,47.8z"/>
</g>
<g>
	<circle cx="73" cy="147.8" r="53.4"/>
</g>
</svg>
