<?xml version="1.0" standalone="no"?><!DOCTYPE svg PUBLIC "-//W3C//DTD SVG 1.1//EN" "http://www.w3.org/Graphics/SVG/1.1/DTD/svg11.dtd"><svg t="1532518122980" class="icon" style="" viewBox="0 0 1024 1024" version="1.1" xmlns="http://www.w3.org/2000/svg" p-id="3294" xmlns:xlink="http://www.w3.org/1999/xlink" width="200" height="200"><defs><style type="text/css"></style></defs><path d="M511.979 64c-187.315 0-339.185 150.447-339.185 336 0 185.572 339.185 560 339.185 560s339.215-374.428 339.215-560c0.001-185.552-151.872-336-339.215-336z m0 560.02c-124.87 0-226.124-100.318-226.124-224.019 0-123.682 101.254-223.98 226.124-223.98 124.91 0 226.144 100.298 226.144 223.98 0 123.7-101.234 224.02-226.144 224.02z m-1.061-336c-61.83 0-111.99 50.129-111.99 111.98 0 61.85 50.162 112 111.99 112 61.868 0 112.01-50.15 112.01-112s-50.142-111.98-112.01-111.98z" fill="" p-id="3295"></path></svg>