<?xml version="1.0" encoding="utf-8"?>
<!-- Generator: Adobe Illustrator 19.0.0, SVG Export Plug-In . SVG Version: 6.00 Build 0)  -->
<svg version="1.1" id="图层_1" xmlns="http://www.w3.org/2000/svg" xmlns:xlink="http://www.w3.org/1999/xlink" x="0px" y="0px"
	 viewBox="-27 47.8 200 200" style="enable-background:new -27 47.8 200 200;" xml:space="preserve">
<path d="M160.5,216.2L118,173.7c19.2-28.2,16.3-66.9-8.7-91.9C81,53.5,35.2,53.5,6.9,81.8c-28.3,28.3-28.3,74.2,0,102.5
	c25,25,63.7,27.9,91.9,8.7l42.5,42.5L160.5,216.2z M16.5,174.6c-23-23-23-60.3,0-83.2c23-23,60.3-23,83.2,0c23,23,23,60.3,0,83.2
	C76.7,197.6,39.5,197.6,16.5,174.6z"/>
</svg>
