<?xml version="1.0" encoding="utf-8"?>
<!-- Generator: Adobe Illustrator 19.0.0, SVG Export Plug-In . SVG Version: 6.00 Build 0)  -->
<svg version="1.1" id="图层_1" xmlns="http://www.w3.org/2000/svg" xmlns:xlink="http://www.w3.org/1999/xlink" x="0px" y="0px"
	 viewBox="-27 47.8 200 200" style="enable-background:new -27 47.8 200 200;" xml:space="preserve">
<path d="M112.5,204.4c0-9.4,7.6-16.9,16.9-16.9s16.9,7.6,16.9,16.9c0,9.4-7.6,16.9-16.9,16.9C120.1,221.4,112.5,213.8,112.5,204.4z
	 M84.3,91.5c0-9.4,7.6-16.9,16.9-16.9s16.9,7.6,16.9,16.9s-7.6,16.9-16.9,16.9S84.3,100.8,84.3,91.5z M-0.4,179
	c0-15.6,12.6-28.2,28.2-28.2c15.6,0,28.2,12.6,28.2,28.2s-12.6,28.2-28.2,28.2C12.2,207.2-0.4,194.6-0.4,179L-0.4,179z"/>
<path d="M-11.7,179c0,21.8,17.7,39.5,39.5,39.5c15.5,0,28.9-8.9,35.3-21.8l38.1,6.7l0,1c0,15.6,12.6,28.2,28.2,28.2
	c15.6,0,28.2-12.6,28.2-28.2s-12.6-28.2-28.2-28.2c-11.3,0-21.1,6.6-25.6,16.2l-37.2-6.5c0.4-2.2,0.6-4.5,0.6-6.9
	c0-10.3-4-19.7-10.4-26.7l34.4-34.4c3.1,1.2,6.5,1.8,10,1.8c15.6,0,28.2-12.6,28.2-28.2s-12.6-28.2-28.2-28.2S73,75.8,73,91.4
	c0,7.9,3.3,15.1,8.5,20.2l-33.4,33.4c-5.9-3.6-12.9-5.6-20.3-5.6C6,139.4-11.7,157.1-11.7,179z"/>
</svg>
