<?xml version="1.0" standalone="no"?>
<!DOCTYPE svg PUBLIC "-//W3C//DTD SVG 1.1//EN" "http://www.w3.org/Graphics/SVG/1.1/DTD/svg11.dtd" >
<!--
2013-9-30: Created.
-->
<svg>
<metadata>
Created by iconfont
</metadata>
<defs>

<font id="iconfont" horiz-adv-x="1024" >
  <font-face
    font-family="iconfont"
    font-weight="500"
    font-stretch="normal"
    units-per-em="1024"
    ascent="896"
    descent="-128"
  />
    <missing-glyph />
    
    <glyph glyph-name="x" unicode="x" horiz-adv-x="1001"
d="M281 543q-27 -1 -53 -1h-83q-18 0 -36.5 -6t-32.5 -18.5t-23 -32t-9 -45.5v-76h912v41q0 16 -0.5 30t-0.5 18q0 13 -5 29t-17 29.5t-31.5 22.5t-49.5 9h-133v-97h-438v97zM955 310v-52q0 -23 0.5 -52t0.5 -58t-10.5 -47.5t-26 -30t-33 -16t-31.5 -4.5q-14 -1 -29.5 -0.5
t-29.5 0.5h-32l-45 128h-439l-44 -128h-29h-34q-20 0 -45 1q-25 0 -41 9.5t-25.5 23t-13.5 29.5t-4 30v167h911zM163 247q-12 0 -21 -8.5t-9 -21.5t9 -21.5t21 -8.5q13 0 22 8.5t9 21.5t-9 21.5t-22 8.5zM316 123q-8 -26 -14 -48q-5 -19 -10.5 -37t-7.5 -25t-3 -15t1 -14.5
t9.5 -10.5t21.5 -4h37h67h81h80h64h36q23 0 34 12t2 38q-5 13 -9.5 30.5t-9.5 34.5q-5 19 -11 39h-368zM336 498v228q0 11 2.5 23t10 21.5t20.5 15.5t34 6h188q31 0 51.5 -14.5t20.5 -52.5v-227h-327z" />
    

    
    <glyph glyph-name="kuoda" unicode="&#59172;" d="M960.095933-31.91366c0 0.409313 0 0.818627 0 1.330269l0 254.286c0 32.847407-32.02878 32.847407-32.02878 32.847407s-32.02878 0-31.926451-32.847407l0-179.074648L630.803238 308.942141c-23.22854 23.22854-45.84311 0.61397-45.84311 0.61397s-22.61457-22.61457 0.61397-45.84311l265.030479-264.109523-177.642051 0c-32.847407 0-32.847407-32.02878-32.847407-32.02878s0-32.02878 32.847407-31.926451l254.183671 0c0.102328 0 0.204657 0 0.409313 0 0.306985 0 0.409313 0 0.409313 0s0.511642 0 1.432597 0.102328c10.232837 0.511642 17.088838 4.195463 21.591286 9.004897 4.707105 4.502448 8.390926 11.256121 8.902568 21.386629 0.102328 1.023284 0.102328 1.534926 0.102328 1.534926S960.095933-32.220646 960.095933-31.91366zM630.803238 459.262516l264.109523 265.030479 0-177.642051c0-32.847407 32.02878-32.847407 32.02878-32.847407s32.02878 0 31.926451 32.847407l0 254.183671c0 0.102328 0 0.204657 0 0.409313 0 0.306985 0 0.409313 0 0.409313s0 0.511642-0.102328 1.432597c-0.511642 10.232837-4.195463 17.088838-9.004897 21.591286-4.502448 4.707105-11.256121 8.390926-21.386629 8.902568-1.023284 0.102328-1.534926 0.102328-1.534926 0.102328s-0.204657 0-0.511642 0c-0.409313 0-0.818627 0-1.330269 0l-254.286 0c-32.847407 0-32.847407-32.02878-32.847407-32.02878s0-32.02878 32.847407-31.926451l179.074648 0L585.574098 504.491656c-23.22854-23.22854-0.61397-45.84311-0.61397-45.84311S607.677026 436.033976 630.803238 459.262516zM173.088438 769.215149l177.642051 0c32.847407 0 32.847407 32.02878 32.847407 32.02878s0 32.02878-32.847407 31.926451l-254.183671 0c-0.102328 0-0.204657 0-0.409313 0-0.306985 0-0.409313 0-0.409313 0s-0.511642 0-1.432597-0.102328C83.960428 832.556411 77.206755 828.872589 72.704307 824.165484c-4.707105-4.502448-8.390926-11.256121-8.902568-21.386629-0.102328-1.023284-0.102328-1.534926-0.102328-1.534926s0-0.204657 0-0.511642c0-0.409313 0-0.818627 0-1.330269l0-254.286c0-32.847407 32.02878-32.847407 32.02878-32.847407s32.02878 0 31.926451 32.847407l0 179.074648L392.992106 459.876486c23.22854-23.22854 45.84311-0.61397 45.84311-0.61397s22.61457 22.61457-0.61397 45.84311L173.088438 769.215149zM391.968822 309.453782l-264.109523-265.030479 0 177.642051c0 32.847407-32.02878 32.847407-32.02878 32.847407s-32.02878 0-31.926451-32.847407l0-254.183671c0-0.102328 0-0.204657 0-0.409313 0-0.306985 0-0.409313 0-0.409313s0-0.511642 0.102328-1.432597c0.511642-10.232837 4.195463-17.088838 9.004897-21.591286 4.502448-4.707105 11.256121-8.390926 21.386629-8.902568 1.023284-0.102328 1.534926-0.102328 1.534926-0.102328s0.204657 0 0.511642 0c0.409313 0 0.818627 0 1.330269 0l254.286 0c32.847407 0 32.847407 32.02878 32.847407 32.02878s0 32.02878-32.847407 31.926451l-179.074648 0 264.211852 265.235135c23.22854 23.22854 0.61397 45.84311 0.61397 45.84311S415.095033 332.682322 391.968822 309.453782z"  horiz-adv-x="1024" />

    
    <glyph glyph-name="arrow-right" unicode="&#59063;" d="M755.974268 384L268.025732 749.0242920000001l0-730.048584L755.974268 384"  horiz-adv-x="1024" />

    
    <glyph glyph-name="fanhui" unicode="&#58906;" d="M1024 487.936H300.032l235.52 251.392-179.712 5.12L29.184 413.696l332.8-335.36h177.664l-238.592 254.976H1024V487.936z"  horiz-adv-x="1024" />

    
    <glyph glyph-name="arrow-left" unicode="&#58880;" d="M735.208665 830.417329l-446.41733-446.417329 446.41733-446.417329z"  horiz-adv-x="1024" />

    
    <glyph glyph-name="yinliang" unicode="&#58910;" d="M484.793167 881.197425L131.334164 580.517368H64.16096c-35.185964 0-63.97448-28.788516-63.97448-63.97448v-257.497283c0-35.185964 28.788516-63.97448 63.97448-63.97448h55.97767L484.793167-112.00638s84.766186-57.577032 84.766187 52.778946V826.819117c0 111.95534-84.766186 54.378308-84.766187 54.378308zM811.063016 719.661862c-14.394258 12.794896-83.166824-33.586602-41.583412-75.170014 209.516423-177.529182 212.715147-343.862831 0-526.190099-31.98724-30.387878 11.195534-87.96491 41.583412-75.170015 289.484523 134.346408 276.689627 551.779892 0 676.530128zM758.28407 537.334594c-38.384688 23.99043-63.97448-54.378308-63.97448-54.378308s97.561082-123.150874 0-214.314509c-19.192344-25.589792 17.592982-76.769376 63.97448-54.378308 105.557892 86.365548 99.160444 249.500473 0 323.071125z"  horiz-adv-x="1024" />

    
    <glyph glyph-name="you" unicode="&#59092;" d="M209.34071563 826.96875l605.31856874-442.96875L209.34071563-58.96875z"  horiz-adv-x="1024" />

    
    <glyph glyph-name="download" unicode="&#58892;" d="M2.56 0.512v-127.488H1024v382.976h-127.488v-255.488H130.048v255.488h-127.488v-255.488zM429.056 833.536v-379.392H194.048l319.488-325.632 318.976 325.632H597.504V833.536H429.056z"  horiz-adv-x="1024" />

    
    <glyph glyph-name="search" unicode="&#58893;" d="M960 33.792L742.4 251.392c98.304 144.384 83.456 342.528-44.544 470.528C552.96 866.816 318.464 866.816 173.568 721.92c-144.896-144.896-144.896-379.904 0-524.8 128-128 326.144-142.848 470.528-44.544l217.6-217.6 98.304 98.816z m-737.28 212.992c-117.76 117.76-117.76 308.736 0 425.984 117.76 117.76 308.736 117.76 425.984 0 117.76-117.76 117.76-308.736 0-425.984-117.76-117.76-308.224-117.76-425.984 0z"  horiz-adv-x="1024" />

    
    <glyph glyph-name="video" unicode="&#58894;" d="M973.824 604.16c-21.504 13.824-48.128 14.848-71.168 4.096l-141.312-71.68v50.176c0 58.88-41.472 106.496-100.352 106.496H120.832C61.952 693.248 20.48 651.776 20.48 592.896v-420.352c0-58.88 41.472-100.352 100.352-100.352H660.48c58.88 0 100.352 47.616 100.352 106.496V219.136l141.312-71.68c10.24-4.608 20.992-7.168 32.256-7.168 13.824 0 27.136 3.584 39.424 11.264 22.528 14.336 30.208 38.912 30.208 66.56v320.512c0 26.624-7.68 51.2-30.208 65.536zM696.32 172.032c0-19.456-15.872-35.84-35.84-35.84H120.832c-19.456 0-35.84 15.872-35.84 35.84v420.352c0 19.456 15.872 35.84 35.84 35.84H660.48c19.456 0 35.84-15.872 35.84-35.84v-420.352z m242.688 45.056c0-4.096-2.048-5.632-3.072-6.144-1.024-1.024-2.048-0.512-2.56 0l-172.544 80.384v172.544l172.544 80.384c0.512 0.512 1.024 0.512 2.56 0 1.024-0.512 3.072-2.048 3.072-6.144v-321.024zM230.912 539.136c-35.328 0-63.488-28.672-63.488-63.488 0-35.328 28.672-63.488 63.488-63.488 35.328 0 63.488 28.672 63.488 63.488 0 35.328-28.672 63.488-63.488 63.488z"  horiz-adv-x="1024" />

    
    <glyph glyph-name="share" unicode="&#58895;" d="M714.24 94.208c0 48.128 38.912 86.528 86.528 86.528s86.528-38.912 86.528-86.528c0-48.128-38.912-86.528-86.528-86.528-47.616-0.512-86.528 38.4-86.528 86.528zM569.856 672.256c0 48.128 38.912 86.528 86.528 86.528s86.528-38.912 86.528-86.528-38.912-86.528-86.528-86.528-86.528 38.912-86.528 86.528zM136.192 224.256c0 79.872 64.512 144.384 144.384 144.384S424.96 304.128 424.96 224.256s-64.512-144.384-144.384-144.384S136.192 144.384 136.192 224.256zM78.336 224.256c0-111.616 90.624-202.24 202.24-202.24 79.36 0 147.968 45.568 180.736 111.616l195.072-34.304v-5.12c0-79.872 64.512-144.384 144.384-144.384s144.384 64.512 144.384 144.384-64.512 144.384-144.384 144.384c-57.856 0-108.032-33.792-131.072-82.944l-190.464 33.28c2.048 11.264 3.072 23.04 3.072 35.328 0 52.736-20.48 100.864-53.248 136.704l176.128 176.128c15.872-6.144 33.28-9.216 51.2-9.216 79.872 0 144.384 64.512 144.384 144.384s-64.512 144.384-144.384 144.384S512 752.64 512 672.768c0-40.448 16.896-77.312 43.52-103.424L384.512 398.336c-30.208 18.432-66.048 28.672-103.936 28.672-111.616 0-202.24-90.624-202.24-202.752z"  horiz-adv-x="1024" />

    
    <glyph glyph-name="calendar" unicode="&#58896;" d="M265.216 425.472h494.08v-83.968H265.216zM265.216 264.192h494.08v-83.968H265.216zM871.936-66.048H152.064c-49.664 0-90.112 41.984-90.112 93.184V672.768c0 51.712 40.448 93.184 90.112 93.184h82.944v-68.096c0-39.424 31.232-71.68 69.12-71.68S373.76 658.432 373.76 697.856V765.952h280.576v-68.096c0-39.424 31.232-71.68 69.12-71.68 38.4 0 69.12 32.256 69.12 71.68V765.952h79.36c49.664 0 90.112-41.984 90.112-93.184v-645.632c0-51.2-40.448-93.184-90.112-93.184z m24.064 143.36v440.832H128v-440.832c0-51.712-1.024-75.264 48.64-75.264h674.816c49.664 0 44.544 24.064 44.544 75.264zM724.992 658.432c-19.968 0-36.352 16.896-36.352 37.376V796.16c0 20.992 16.384 37.888 36.352 37.888s36.352-16.896 36.352-37.888v-100.352c0-20.48-16.384-37.376-36.352-37.376z m-420.864 0c-18.944 0-34.816 15.872-34.816 35.84V798.208c0 19.968 15.36 35.84 34.816 35.84s34.816-15.872 34.816-35.84v-103.936c0-19.968-15.36-35.84-34.816-35.84z"  horiz-adv-x="1024" />

    
    <glyph glyph-name="position" unicode="&#58897;" d="M511.979 832c-187.315 0-339.185-150.447-339.185-336 0-185.572 339.185-560 339.185-560s339.215 374.428 339.215 560c0.001 185.552-151.872 336-339.215 336z m0-560.02c-124.87 0-226.124 100.318-226.124 224.019 0 123.682 101.254 223.98 226.124 223.98 124.91 0 226.144-100.298 226.144-223.98 0-123.7-101.234-224.02-226.144-224.02z m-1.061 336c-61.83 0-111.99-50.129-111.99-111.98 0-61.85 50.162-112 111.99-112 61.868 0 112.01 50.15 112.01 112s-50.142 111.98-112.01 111.98z"  horiz-adv-x="1024" />

    
    <glyph glyph-name="pick" unicode="&#58898;" d="M512 819.2c240.128 0 435.2-195.072 435.2-435.2s-195.072-435.2-435.2-435.2-435.2 195.072-435.2 435.2 195.072 435.2 435.2 435.2m0 76.8c-282.624 0-512-229.376-512-512s229.376-512 512-512 512 229.376 512 512-229.376 512-512 512zM512 384m-273.408 0a273.408 273.408 0 1 1 546.816 0 273.408 273.408 0 1 1-546.816 0Z"  horiz-adv-x="1024" />

    
    <glyph glyph-name="triangle" unicode="&#58899;" d="M512 125.953L28.263 642.049h967.475L512.001 125.953z"  horiz-adv-x="1024" />

    
    <glyph glyph-name="position1" unicode="&#58900;" d="M468.649886 137.372998c-16.988558 18.745995-37.491991 43.350114-58.581236 73.226544-198.004577-15.816934-345.043478-74.983982-345.043478-145.281464 0-82.599542 200.933638-149.382151 449.318077-149.382151 247.798627 0 449.318078 66.782609 449.318078 149.382151 0 45.693364-62.681922 86.700229-160.512586 114.233409v45.693364c135.908467-34.562929 225.537757-93.729977 225.537758-159.926773 0-106.617849-230.224256-193.318078-514.34325-193.318078S0-41.299771 0 65.318078c0 89.629291 161.098398 164.613272 380.19222 186.874142-76.741419 113.647597-156.997712 266.544622-156.997712 357.345537 0 158.169336 128.878719 286.462243 288.21968 286.462243 158.755149 0 288.21968-128.292906 288.219679-286.462243 0-90.215103-79.670481-242.526316-156.411899-356.759725 28.704805-2.929062 56.823799-6.443936 83.771167-11.130435v-45.107551c-35.148741 6.443936-73.226545 11.130435-113.061785 14.059496-21.675057-29.87643-42.17849-55.066362-59.167048-73.812357m0 0.585813l-15.231121-15.231122c-12.302059-11.716247-21.675057-18.160183-27.533181-18.160183s-32.21968 20.503432-43.350114 33.391305m39.83524 585.812357c-79.084668 0-142.938215-60.338673-142.938215-135.322655s63.853547-135.322654 142.938215-135.322654 142.938215 60.338673 142.938215 135.322654-63.853547 135.322654-142.938215 135.322655z"  horiz-adv-x="1028" />

    
    <glyph glyph-name="person" unicode="&#58901;" d="M1024-85.3c0-23.654-20.787-42.7-46.694-42.7H46.694C20.787-128 0-109.056 0-85.3c0 0 7.782 146.945 134.758 203.88 80.384 35.532 49.255 18.943 147.764 54.476 98.508 35.533 121.856 61.645 121.856 61.645l-5.223 47.411s-108.851 28.467-126.976 137.42c-33.69-7.065-44.032 33.178-46.694 59.29-2.56 26.112-20.787 106.701 20.787 99.533-7.782 54.477-15.565 101.888-10.342 128 5.222 42.701-7.783 49.767 36.25 82.944 10.342 9.523-10.343 49.767-2.56 61.645 13.004 23.654 101.068 14.234 114.073 18.944C419.943 884.122 461.414 893.542 505.549 896c186.675-7.168 259.174-99.533 269.619-189.645 2.56-26.112-2.56-73.523-13.005-128 41.472 7.066 23.347-73.523 20.787-99.533-2.56-26.112-12.902-68.71-46.694-59.29-18.125-109.055-106.291-137.42-106.291-137.42l-5.223-45.056s23.348-23.654 121.856-61.645c98.51-35.533 67.38-21.299 147.764-56.934C1016.218 64 1024-85.3 1024-85.3z m0 0"  horiz-adv-x="1024" />

    
    <glyph glyph-name="other" unicode="&#58902;" d="M694.773455 286.169336V896H333.913043v-1024h137.080092z"  horiz-adv-x="1028" />

    
    <glyph glyph-name="border" unicode="&#58903;" d="M855.89504 370.14016l-345.38496-345.38496-56.83712 56.84224 345.37984 345.37984zM583.168 97.28H109.056v-80.384h393.728zM861.696 375.808v394.24h-79.872v-474.112z"  horiz-adv-x="1024" />

    
    <glyph glyph-name="delete" unicode="&#58904;" d="M861.3632 867.328l133.95456-133.95456L162.6368-99.30752 28.68224 34.64192zM995.328 34.6368l-133.95456-133.95456L28.69248 733.3632 162.64192 867.31776z"  horiz-adv-x="1024" />

    


  </font>
</defs>
</svg>
